<svg width="1000" height="420" version="1.1" xmlns="http://www.w3.org/2000/svg" desc="Created with imagetracer.js version 1.2.6" ><path fill="rgb(212,206,59)" stroke="rgb(212,206,59)" stroke-width="1" opacity="1" d="M 82.5 63 L 83 65.5 L 82 65.5 L 82.5 63 Z " /><path fill="rgb(212,206,59)" stroke="rgb(212,206,59)" stroke-width="1" opacity="1" d="M 82.5 80 L 83 351.5 L 82 351.5 L 82.5 80 Z " /><path fill="rgb(212,206,59)" stroke="rgb(212,206,59)" stroke-width="1" opacity="1" d="M 303.5 195 L 309 195.5 L 303.5 196 L 303.5 195 Z " /><path fill="rgb(212,206,59)" stroke="rgb(212,206,59)" stroke-width="1" opacity="1" d="M 295.5 196 L 298 196.5 L 295.5 197 L 295.5 196 Z " /><path fill="rgb(212,206,59)" stroke="rgb(212,206,59)" stroke-width="1" opacity="1" d="M 314.5 196 L 318 196.5 L 314.5 197 L 314.5 196 Z " /><path fill="rgb(212,206,59)" stroke="rgb(212,206,59)" stroke-width="1" opacity="1" d="M 214.5 197 L 242.5 197 L 243 197.5 L 243 297.5 L 242 297.5 L 242 198.5 L 241.5 198 L 214.5 198 L 214.5 197 Z " /><path fill="rgb(212,206,59)" stroke="rgb(212,206,59)" stroke-width="1" opacity="1" d="M 282.5 201 L 281.5 203 L 282.5 201 Z " /><path fill="rgb(212,206,59)" stroke="rgb(212,206,59)" stroke-width="1" opacity="1" d="M 330.5 201 L 331.5 203 L 330.5 201 Z " /><path fill="rgb(212,206,59)" stroke="rgb(212,206,59)" stroke-width="1" opacity="1" d="M 392.5 201 L 499.5 201 L 500 203 L 504 203.5 L 504 215.5 L 504.5 217 L 502.5 217 Q 497.5 216 498.5 219 L 388.5 219 L 384 217.5 L 393.5 217 L 396 214.5 Q 396.7 207.4 395 204 L 392.5 203 L 383 202.5 L 391.5 202 L 392.5 201 Z " /><path fill="rgb(212,206,59)" stroke="rgb(212,206,59)" stroke-width="1" opacity="1" d="M 279.5 203 L 278.5 205 L 279.5 203 Z " /><path fill="rgb(212,206,59)" stroke="rgb(212,206,59)" stroke-width="1" opacity="1" d="M 333.5 203 L 341.5 212 L 333.5 203 Z " /><path fill="rgb(212,206,59)" stroke="rgb(212,206,59)" stroke-width="1" opacity="1" d="M 272.5 210 L 271.5 212 L 272.5 210 Z " /><path fill="rgb(212,206,59)" stroke="rgb(212,206,59)" stroke-width="1" opacity="1" d="M 270.5 213 L 269.5 215 L 270.5 213 Z " /><path fill="rgb(212,206,59)" stroke="rgb(212,206,59)" stroke-width="1" opacity="1" d="M 342.5 213 L 343.5 215 L 342.5 213 Z " /><path fill="rgb(212,206,59)" stroke="rgb(212,206,59)" stroke-width="1" opacity="1" d="M 344.5 216 L 346 218.5 L 345 218.5 L 344.5 216 Z " /><path fill="rgb(212,206,59)" stroke="rgb(212,206,59)" stroke-width="1" opacity="1" d="M 343.5 219 L 342.5 221 L 343.5 219 Z " /><path fill="rgb(212,206,59)" stroke="rgb(212,206,59)" stroke-width="1" opacity="1" d="M 304.5 220 L 309 220.5 L 304.5 221 L 304.5 220 Z " /><path fill="rgb(212,206,59)" stroke="rgb(212,206,59)" stroke-width="1" opacity="1" d="M 340.5 221 L 339.5 223 L 340.5 221 Z " /><path fill="rgb(212,206,59)" stroke="rgb(212,206,59)" stroke-width="1" opacity="1" d="M 316.5 223 L 320.5 228 L 316.5 223 Z " /><path fill="rgb(212,206,59)" stroke="rgb(212,206,59)" stroke-width="1" opacity="1" d="M 337.5 223 L 336.5 225 L 337.5 223 Z " /><path fill="rgb(212,206,59)" stroke="rgb(212,206,59)" stroke-width="1" opacity="1" d="M 265.5 225 L 266 228.5 L 265 228.5 L 265.5 225 Z " /><path fill="rgb(212,206,59)" stroke="rgb(212,206,59)" stroke-width="1" opacity="1" d="M 334.5 225 L 333.5 227 L 334.5 225 Z " /><path fill="rgb(212,206,59)" stroke="rgb(212,206,59)" stroke-width="1" opacity="1" d="M 293.5 228 L 294 230.5 L 293 230.5 L 293.5 228 Z " /><path fill="rgb(212,206,59)" stroke="rgb(212,206,59)" stroke-width="1" opacity="1" d="M 329.5 228 L 328.5 230 L 329.5 228 Z " /><path fill="rgb(212,206,59)" stroke="rgb(212,206,59)" stroke-width="1" opacity="1" d="M 321.5 229 L 322.5 231 L 321.5 229 Z " /><path fill="rgb(212,206,59)" stroke="rgb(212,206,59)" stroke-width="1" opacity="1" d="M 326.5 230 L 325.5 232 L 326.5 230 Z " /><path fill="rgb(212,206,59)" stroke="rgb(212,206,59)" stroke-width="1" opacity="1" d="M 293.5 233 L 294 236.5 L 293 236.5 L 293.5 233 Z " /><path fill="rgb(212,206,59)" stroke="rgb(212,206,59)" stroke-width="1" opacity="1" d="M 265.5 237 L 266 240.5 L 265 240.5 L 265.5 237 Z " /><path fill="rgb(212,206,59)" stroke="rgb(212,206,59)" stroke-width="1" opacity="1" d="M 294.5 238 L 295.5 240 L 294.5 238 Z " /><path fill="rgb(212,206,59)" stroke="rgb(212,206,59)" stroke-width="1" opacity="1" d="M 298.5 242 L 299.5 244 L 298.5 242 Z " /><path fill="rgb(212,206,59)" stroke="rgb(212,206,59)" stroke-width="1" opacity="1" d="M 266.5 243 L 267 245.5 L 266 245.5 L 266.5 243 Z " /><path fill="rgb(212,206,59)" stroke="rgb(212,206,59)" stroke-width="1" opacity="1" d="M 316.5 251 L 320 252.5 L 318.5 253 L 316.5 251 Z " /><path fill="rgb(212,206,59)" stroke="rgb(212,206,59)" stroke-width="1" opacity="1" d="M 269.5 252 L 270.5 254 L 269.5 252 Z " /><path fill="rgb(212,206,59)" stroke="rgb(212,206,59)" stroke-width="1" opacity="1" d="M 271.5 255 L 272.5 257 L 271.5 255 Z " /><path fill="rgb(212,206,59)" stroke="rgb(212,206,59)" stroke-width="1" opacity="1" d="M 331.5 258 L 332.5 260 L 331.5 258 Z " /><path fill="rgb(212,206,59)" stroke="rgb(212,206,59)" stroke-width="1" opacity="1" d="M 274.5 259 L 276.5 262 L 274.5 259 Z " /><path fill="rgb(212,206,59)" stroke="rgb(212,206,59)" stroke-width="1" opacity="1" d="M 334.5 260 L 335.5 262 L 334.5 260 Z " /><path fill="rgb(212,206,59)" stroke="rgb(212,206,59)" stroke-width="1" opacity="1" d="M 337.5 262 L 339.5 265 L 337.5 262 Z " /><path fill="rgb(212,206,59)" stroke="rgb(212,206,59)" stroke-width="1" opacity="1" d="M 280.5 264 L 281.5 266 L 280.5 264 Z " /><path fill="rgb(212,206,59)" stroke="rgb(212,206,59)" stroke-width="1" opacity="1" d="M 286.5 268 L 287.5 270 L 286.5 268 Z " /><path fill="rgb(212,206,59)" stroke="rgb(212,206,59)" stroke-width="1" opacity="1" d="M 346.5 271 L 347.5 273 L 346.5 271 Z " /><path fill="rgb(212,206,59)" stroke="rgb(212,206,59)" stroke-width="1" opacity="1" d="M 295.5 273 L 299 274.5 L 297.5 275 L 295.5 273 Z " /><path fill="rgb(212,206,59)" stroke="rgb(212,206,59)" stroke-width="1" opacity="1" d="M 348.5 274 L 351 278.5 L 350 278.5 L 348.5 274 Z " /><path fill="rgb(212,206,59)" stroke="rgb(212,206,59)" stroke-width="1" opacity="1" d="M 302.5 276 L 306 277.5 L 304.5 278 L 302.5 276 Z " /><path fill="rgb(212,206,59)" stroke="rgb(212,206,59)" stroke-width="1" opacity="1" d="M 313.5 281 L 316 282.5 L 314.5 282 L 313.5 281 Z " /><path fill="rgb(212,206,59)" stroke="rgb(212,206,59)" stroke-width="1" opacity="1" d="M 319.5 284 L 323.5 289 L 319.5 284 Z " /><path fill="rgb(212,206,59)" stroke="rgb(212,206,59)" stroke-width="1" opacity="1" d="M 353.5 287 L 354 302.5 L 353 302.5 L 353.5 287 Z " /><path fill="rgb(212,206,59)" stroke="rgb(212,206,59)" stroke-width="1" opacity="1" d="M 278.5 292 L 282 294.5 L 279.5 293 L 277.5 294 L 278.5 292 Z " /><path fill="rgb(212,206,59)" stroke="rgb(212,206,59)" stroke-width="1" opacity="1" d="M 325.5 294 L 326 296.5 L 325 296.5 L 325.5 294 Z " /><path fill="rgb(212,206,59)" stroke="rgb(212,206,59)" stroke-width="1" opacity="1" d="M 182.5 295 L 183.5 297 L 182.5 295 Z " /><path fill="rgb(212,206,59)" stroke="rgb(212,206,59)" stroke-width="1" opacity="1" d="M 273.5 295 L 272.5 297 L 270.5 298 L 271.5 296 L 273.5 295 Z " /><path fill="rgb(212,206,59)" stroke="rgb(212,206,59)" stroke-width="1" opacity="1" d="M 282.5 296 L 290.5 305 L 282.5 296 Z " /><path fill="rgb(212,206,59)" stroke="rgb(212,206,59)" stroke-width="1" opacity="1" d="M 176.5 297 L 175.5 299 L 176.5 297 Z " /><path fill="rgb(212,206,59)" stroke="rgb(212,206,59)" stroke-width="1" opacity="1" d="M 213.5 297 L 214 299.5 L 213 299.5 L 213.5 297 Z " /><path fill="rgb(212,206,59)" stroke="rgb(212,206,59)" stroke-width="1" opacity="1" d="M 266.5 299 L 265.5 301 L 266.5 299 Z " /><path fill="rgb(212,206,59)" stroke="rgb(212,206,59)" stroke-width="1" opacity="1" d="M 324.5 299 L 325 300.5 L 323 301.5 L 324.5 299 Z " /><path fill="rgb(212,206,59)" stroke="rgb(212,206,59)" stroke-width="1" opacity="1" d="M 171.5 300 L 170.5 302 L 171.5 300 Z " /><path fill="rgb(212,206,59)" stroke="rgb(212,206,59)" stroke-width="1" opacity="1" d="M 185.5 300 L 186.5 302 L 185.5 300 Z " /><path fill="rgb(212,206,59)" stroke="rgb(212,206,59)" stroke-width="1" opacity="1" d="M 212.5 301 L 213 302.5 L 211 303.5 L 212.5 301 Z " /><path fill="rgb(212,206,59)" stroke="rgb(212,206,59)" stroke-width="1" opacity="1" d="M 241.5 302 L 242 304.5 L 241 304.5 L 241.5 302 Z " /><path fill="rgb(212,206,59)" stroke="rgb(212,206,59)" stroke-width="1" opacity="1" d="M 259.5 303 L 258.5 305 L 259.5 303 Z " /><path fill="rgb(212,206,59)" stroke="rgb(212,206,59)" stroke-width="1" opacity="1" d="M 322.5 303 L 321.5 305 L 322.5 303 Z " /><path fill="rgb(212,206,59)" stroke="rgb(212,206,59)" stroke-width="1" opacity="1" d="M 163.5 305 L 162.5 307 L 160 308.5 L 159.5 310 L 159 308.5 L 163.5 305 Z " /><path fill="rgb(212,206,59)" stroke="rgb(212,206,59)" stroke-width="1" opacity="1" d="M 319.5 305 L 318.5 307 L 315.5 308 L 315.5 307 L 319.5 305 Z " /><path fill="rgb(212,206,59)" stroke="rgb(212,206,59)" stroke-width="1" opacity="1" d="M 208.5 306 L 207.5 308 L 206 307.5 L 208.5 306 Z " /><path fill="rgb(212,206,59)" stroke="rgb(212,206,59)" stroke-width="1" opacity="1" d="M 294.5 306 L 298 307.5 L 296.5 308 L 294.5 306 Z " /><path fill="rgb(212,206,59)" stroke="rgb(212,206,59)" stroke-width="1" opacity="1" d="M 257.5 307 L 258.5 309 L 257.5 307 Z " /><path fill="rgb(212,206,59)" stroke="rgb(212,206,59)" stroke-width="1" opacity="1" d="M 195.5 308 L 205 308.5 L 195.5 309 L 195.5 308 Z " /><path fill="rgb(212,206,59)" stroke="rgb(212,206,59)" stroke-width="1" opacity="1" d="M 300.5 308 L 305 308.5 L 300.5 309 L 300.5 308 Z " /><path fill="rgb(212,206,59)" stroke="rgb(212,206,59)" stroke-width="1" opacity="1" d="M 309.5 308 L 313 308.5 L 309.5 309 L 309.5 308 Z " /><path fill="rgb(212,206,59)" stroke="rgb(212,206,59)" stroke-width="1" opacity="1" d="M 259.5 310 L 260.5 312 L 259.5 310 Z " /><path fill="rgb(212,206,59)" stroke="rgb(212,206,59)" stroke-width="1" opacity="1" d="M 161.5 313 L 162.5 315 L 161.5 313 Z " /><path fill="rgb(212,206,59)" stroke="rgb(212,206,59)" stroke-width="1" opacity="1" d="M 261.5 313 L 264.5 317 L 261.5 313 Z " /><path fill="rgb(212,206,59)" stroke="rgb(212,206,59)" stroke-width="1" opacity="1" d="M 348.5 315 L 347.5 317 L 348.5 315 Z " /><path fill="rgb(212,206,59)" stroke="rgb(212,206,59)" stroke-width="1" opacity="1" d="M 163.5 316 L 165.5 319 L 163.5 316 Z " /><path fill="rgb(212,206,59)" stroke="rgb(212,206,59)" stroke-width="1" opacity="1" d="M 236.5 317 L 235.5 319 L 236.5 317 Z " /><path fill="rgb(212,206,59)" stroke="rgb(212,206,59)" stroke-width="1" opacity="1" d="M 346.5 318 L 340.5 325 L 346.5 318 Z " /><path fill="rgb(212,206,59)" stroke="rgb(212,206,59)" stroke-width="1" opacity="1" d="M 268.5 320 L 271.5 324 L 268.5 320 Z " /><path fill="rgb(212,206,59)" stroke="rgb(212,206,59)" stroke-width="1" opacity="1" d="M 233.5 321 L 229.5 326 L 233.5 321 Z " /><path fill="rgb(212,206,59)" stroke="rgb(212,206,59)" stroke-width="1" opacity="1" d="M 170.5 323 L 172.5 326 L 170.5 323 Z " /><path fill="rgb(212,206,59)" stroke="rgb(212,206,59)" stroke-width="1" opacity="1" d="M 273.5 324 L 274.5 326 L 273.5 324 Z " /><path fill="rgb(212,206,59)" stroke="rgb(212,206,59)" stroke-width="1" opacity="1" d="M 338.5 325 L 337.5 327 L 338.5 325 Z " /><path fill="rgb(212,206,59)" stroke="rgb(212,206,59)" stroke-width="1" opacity="1" d="M 227.5 326 L 226.5 328 L 227.5 326 Z " /><path fill="rgb(212,206,59)" stroke="rgb(212,206,59)" stroke-width="1" opacity="1" d="M 278.5 327 L 281 328.5 L 279.5 329 L 278.5 327 Z " /><path fill="rgb(212,206,59)" stroke="rgb(212,206,59)" stroke-width="1" opacity="1" d="M 335.5 327 L 334.5 329 L 331.5 330 L 331.5 329 L 335.5 327 Z " /><path fill="rgb(212,206,59)" stroke="rgb(212,206,59)" stroke-width="1" opacity="1" d="M 177.5 328 L 180 329.5 L 178.5 330 L 177.5 328 Z " /><path fill="rgb(212,206,59)" stroke="rgb(212,206,59)" stroke-width="1" opacity="1" d="M 224.5 328 L 223.5 330 L 220.5 331 L 220.5 330 L 224.5 328 Z " /><path fill="rgb(212,206,59)" stroke="rgb(212,206,59)" stroke-width="1" opacity="1" d="M 325.5 331 L 328 331.5 L 325.5 332 L 325.5 331 Z " /><path fill="rgb(212,206,59)" stroke="rgb(212,206,59)" stroke-width="1" opacity="1" d="M 190.5 333 L 194 333.5 L 190.5 334 L 190.5 333 Z " /><path fill="rgb(212,206,59)" stroke="rgb(212,206,59)" stroke-width="1" opacity="1" d="M 208.5 333 L 212 333.5 L 208.5 334 L 208.5 333 Z " /><path fill="rgb(212,206,59)" stroke="rgb(212,206,59)" stroke-width="1" opacity="1" d="M 295.5 333 L 299 333.5 L 295.5 334 L 295.5 333 Z " /><path fill="rgb(212,206,59)" stroke="rgb(212,206,59)" stroke-width="1" opacity="1" d="M 316.5 333 L 320 333.5 L 316.5 334 L 316.5 333 Z " /><path fill="rgb(212,206,59)" stroke="rgb(212,206,59)" stroke-width="1" opacity="1" d="M 82.5 355 L 83.5 356 L 376 356.5 L 82 357 L 82.5 355 Z " /><path fill="rgb(1,3,5)" stroke="rgb(1,3,5)" stroke-width="1" opacity="0.996078431372549" d="M 82.5 61 L 376 61.5 L 82.5 62 L 82.5 61 Z " /><path fill="rgb(1,3,5)" stroke="rgb(1,3,5)" stroke-width="1" opacity="0.996078431372549" d="M 296.5 197 L 316.5 197 L 320.5 198 Q 333.1 201.4 340 210.5 L 344 218.5 L 328.5 229 L 323 231 L 320 225 L 311.5 220 L 301.5 220 L 294 225.5 Q 291.4 228.4 292 234.5 Q 293.5 241 298.5 244 L 329.5 258 Q 339.3 263.3 346 271.5 Q 354.7 281.3 353 301.5 Q 349.8 318.3 337.5 326 Q 329.5 331 318.5 333 L 296.5 333 Q 274.5 329 263 314.5 L 258 305 L 279.5 293 L 288.5 304 Q 295.9 310.6 310.5 310 L 319.5 307 L 325 301.5 L 326 291.5 L 321.5 285 L 311.5 279 L 289.5 270 Q 279.1 264.4 272 255.5 L 266 240.5 L 266 226.5 Q 268.7 211.2 279.5 204 Q 286.4 198.9 296.5 197 Z " /><path fill="rgb(1,3,5)" stroke="rgb(1,3,5)" stroke-width="1" opacity="0.996078431372549" d="M 215 198 L 241.5 198 L 242 198.5 L 242 297.5 L 240 308.5 L 237 315.5 L 226.5 327 Q 220 331.5 210.5 333 L 191.5 333 Q 174 329.5 165 317.5 L 160 308 L 181.5 296 L 190.5 307 Q 194.5 310 201.5 310 L 208.5 308 L 213 303.5 L 215 297.5 L 215 198 Z " /><path fill="rgb(1,3,5)" stroke="rgb(1,3,5)" stroke-width="1" opacity="0.996078431372549" d="M 377.5 199 L 413 199.5 L 377.5 200 L 377.5 199 Z " /><path fill="rgb(1,3,5)" stroke="rgb(1,3,5)" stroke-width="1" opacity="0.996078431372549" d="M 377.5 220 L 413 220.5 L 377.5 221 L 377.5 220 Z " /><path fill="rgb(1,3,5)" stroke="rgb(1,3,5)" stroke-width="1" opacity="0.996078431372549" d="M 82.5 357 L 376 357.5 L 82.5 358 L 82.5 357 Z " /><path fill="rgb(1,30,62)" stroke="rgb(1,30,62)" stroke-width="1" opacity="1" d="M 999.5 0 L 1000 419.5 L 999 419.5 L 999.5 0 Z " /><path fill="rgb(1,30,62)" stroke="rgb(1,30,62)" stroke-width="1" opacity="1" d="M 80 56 L 85 56 L 85 57.5 L 84.5 60 Q 81.2 58.9 82 61.5 L 81 62.5 L 81 356.5 L 81.5 359 L 83 359.5 L 80 360 L 81 357.5 L 79 354.5 L 79 63.5 L 81 61.5 L 80 60.5 L 81.5 58 Q 78.9 58.7 80 56 Z " /><path fill="rgb(1,30,62)" stroke="rgb(1,30,62)" stroke-width="1" opacity="1" d="M 87 56 L 367.5 56 L 368 59 L 375.5 59 L 380 60 L 380 58 Q 374.8 59.7 376 56 L 380.5 57 L 382 56.5 Q 381.3 59.1 384 58 L 384 61 L 380 60 Q 380.8 63.1 378 62.5 L 378 198.5 L 377 198.5 L 377 61.5 L 375.5 60 L 86 59.5 L 104 58.5 L 87 58 L 87 56 Z M 121 58 L 121 59 L 136 59 L 121 58 Z M 153 58 L 153 59 L 168 59 L 153 58 Z M 185 58 L 185 59 L 200 59 L 185 58 Z M 217 58 L 217 59 L 232 59 L 217 58 Z M 249 58 L 249 59 L 264 59 L 249 58 Z M 281 58 L 281 59 L 296 59 L 281 58 Z M 313 58 L 313 59 L 328 59 L 313 58 Z M 345 58 L 345 59 L 360 59 L 345 58 Z " /><path fill="rgb(1,30,62)" stroke="rgb(1,30,62)" stroke-width="1" opacity="1" d="M 616 56 Q 619.7 54.8 618 60 Q 614.3 61.2 616 56 Z " /><path fill="rgb(1,30,62)" stroke="rgb(1,30,62)" stroke-width="1" opacity="1" d="M 622 56 Q 625 55 624 58 Q 621 59 622 56 Z " /><path fill="rgb(1,30,62)" stroke="rgb(1,30,62)" stroke-width="1" opacity="1" d="M 633 56 L 639.5 56 L 640 58 L 633.5 58 L 633 56 Z " /><path fill="rgb(1,30,62)" stroke="rgb(1,30,62)" stroke-width="1" opacity="1" d="M 918 56 Q 921 55 920 58 Q 917 59 918 56 Z " /><path fill="rgb(1,30,62)" stroke="rgb(1,30,62)" stroke-width="1" opacity="1" d="M 622.5 60 L 624.5 61 L 628.5 61 L 917.5 61 L 918.5 60 L 921 64.5 Q 918.8 65.8 920 70.5 L 921 71.5 L 921 352.5 L 920 353.5 L 920 360 L 912.5 361 L 911.5 360 L 627 359.5 L 917.5 359 L 919 357.5 L 919 62 L 623 62 L 623 200 L 413.5 200 L 413.5 199 L 552 198.5 L 551.5 197 L 569 197.5 L 568.5 199 L 584 198.5 Q 581.8 197.3 584.5 196 L 599.5 196 L 601 197.5 L 600.5 199 L 620 198.5 L 615 197.5 L 617.5 196 L 620 197 L 620 191 L 618 190.5 L 618 73.5 L 620 71.5 L 620.5 62 L 621.5 64 L 622.5 60 Z M 622 65 L 621 199 L 622 199 L 622 65 Z " /><path fill="rgb(1,30,62)" stroke="rgb(1,30,62)" stroke-width="1" opacity="1" d="M 382 62 Q 385 61 384 64 Q 381 65 382 62 Z " /><path fill="rgb(1,30,62)" stroke="rgb(1,30,62)" stroke-width="1" opacity="1" d="M 379.5 63 L 384 65.5 L 382 66 L 384 70 L 382 70.5 L 382 192 Q 385 191 384 194 L 379 194 L 379 192.5 L 380 191.5 L 380 64.5 L 379.5 63 Z " /><path fill="rgb(1,30,62)" stroke="rgb(1,30,62)" stroke-width="1" opacity="1" d="M 616 65 L 618 65.5 L 618 72 L 616 71.5 L 616 65 Z " /><path fill="rgb(1,30,62)" stroke="rgb(1,30,62)" stroke-width="1" opacity="1" d="M 923.5 67 L 924 355.5 L 923 355.5 L 923.5 67 Z " /><path fill="rgb(1,30,62)" stroke="rgb(1,30,62)" stroke-width="1" opacity="1" d="M 480 192 L 487.5 192 L 488 194 L 480.5 194 L 480 192 Z " /><path fill="rgb(1,30,62)" stroke="rgb(1,30,62)" stroke-width="1" opacity="1" d="M 520 192 L 535.5 192 L 536 194 L 520.5 194 L 520 192 Z " /><path fill="rgb(1,30,62)" stroke="rgb(1,30,62)" stroke-width="1" opacity="1" d="M 552 192 L 599.5 192 L 600 194 L 583.5 194 L 582.5 196 L 569 196 L 568.5 194 L 552.5 194 L 552 192 Z " /><path fill="rgb(1,30,62)" stroke="rgb(1,30,62)" stroke-width="1" opacity="1" d="M 616 192 Q 619 191 618 194 Q 615 195 616 192 Z " /><path fill="rgb(1,30,62)" stroke="rgb(1,30,62)" stroke-width="1" opacity="1" d="M 504 194 L 518.5 194 L 519 196 L 504.5 196 L 504 194 Z " /><path fill="rgb(1,30,62)" stroke="rgb(1,30,62)" stroke-width="1" opacity="1" d="M 537 194 L 550.5 194 L 551 196 L 537.5 196 L 537 194 Z " /><path fill="rgb(1,30,62)" stroke="rgb(1,30,62)" stroke-width="1" opacity="1" d="M 601 194 L 614.5 194 L 615 196 L 601.5 196 L 601 194 Z " /><path fill="rgb(1,30,62)" stroke="rgb(1,30,62)" stroke-width="1" opacity="1" d="M 380.5 196 L 431.5 196 L 440 197.5 L 379.5 198 L 380.5 196 Z " /><path fill="rgb(1,30,62)" stroke="rgb(1,30,62)" stroke-width="1" opacity="1" d="M 488.5 196 L 496 196.5 L 488.5 197 L 488.5 196 Z " /><path fill="rgb(1,30,62)" stroke="rgb(1,30,62)" stroke-width="1" opacity="1" d="M 520.5 196 L 535.5 196 L 536 198 L 519 197.5 L 520.5 196 Z " /><path fill="rgb(1,30,62)" stroke="rgb(1,30,62)" stroke-width="1" opacity="1" d="M 444.5 197 L 479 197.5 L 444.5 198 L 444.5 197 Z " /><path fill="rgb(1,30,62)" stroke="rgb(1,30,62)" stroke-width="1" opacity="1" d="M 497.5 197 L 503 197.5 L 497.5 198 L 497.5 197 Z " /><path fill="rgb(1,30,62)" stroke="rgb(1,30,62)" stroke-width="1" opacity="1" d="M 413.5 220 L 418 220.5 L 413.5 221 L 413.5 220 Z " /><path fill="rgb(1,30,62)" stroke="rgb(1,30,62)" stroke-width="1" opacity="1" d="M 419.5 220 L 623 220 L 623 357.5 L 626 359.5 L 622 360 Q 623.3 354.7 620 355.5 L 620 222 L 622 221.5 L 571 221 L 570.5 224 L 569.5 221 L 569 224 L 566 224 L 565.5 221 L 547 221 Q 548.5 225.5 544 224 L 544.5 222 L 546 222.5 L 545.5 221 L 419.5 221 L 419.5 220 Z M 622 352 L 621 355 L 622 355 L 622 352 Z " /><path fill="rgb(1,30,62)" stroke="rgb(1,30,62)" stroke-width="1" opacity="1" d="M 377.5 221 L 378 356.5 L 377 356.5 L 377.5 221 Z " /><path fill="rgb(1,30,62)" stroke="rgb(1,30,62)" stroke-width="1" opacity="1" d="M 379.5 222 Q 383.3 221.3 384 223.5 L 380.5 224 L 379.5 222 Z " /><path fill="rgb(1,30,62)" stroke="rgb(1,30,62)" stroke-width="1" opacity="1" d="M 418.5 222 L 420.5 222 L 432 222.5 L 426.5 224 L 422.5 223 L 418 224 L 417.5 352 L 417 224.5 L 416 223.5 L 418.5 222 Z " /><path fill="rgb(1,30,62)" stroke="rgb(1,30,62)" stroke-width="1" opacity="1" d="M 433 222 L 438 222 L 438 224 L 433 224 L 433 222 Z " /><path fill="rgb(1,30,62)" stroke="rgb(1,30,62)" stroke-width="1" opacity="1" d="M 456.5 222 L 458.5 222 L 463 222.5 L 456 224 L 456.5 222 Z " /><path fill="rgb(1,30,62)" stroke="rgb(1,30,62)" stroke-width="1" opacity="1" d="M 467.5 222 L 471 222.5 L 467.5 223 L 467.5 222 Z " /><path fill="rgb(1,30,62)" stroke="rgb(1,30,62)" stroke-width="1" opacity="1" d="M 472.5 222 L 476 223.5 L 472 224 L 472.5 222 Z " /><path fill="rgb(1,30,62)" stroke="rgb(1,30,62)" stroke-width="1" opacity="1" d="M 485.5 222 L 488 223.5 L 486.5 224 L 485.5 222 Z " /><path fill="rgb(1,30,62)" stroke="rgb(1,30,62)" stroke-width="1" opacity="1" d="M 492 222 L 501 222.5 L 492 224 L 492 222 Z " /><path fill="rgb(1,30,62)" stroke="rgb(1,30,62)" stroke-width="1" opacity="1" d="M 507.5 222 Q 513.4 220.3 512 224 Q 507.3 225 507.5 222 Z " /><path fill="rgb(1,30,62)" stroke="rgb(1,30,62)" stroke-width="1" opacity="1" d="M 516 222 L 520 222.5 L 516 224 L 516 222 Z " /><path fill="rgb(1,30,62)" stroke="rgb(1,30,62)" stroke-width="1" opacity="1" d="M 561.5 222 Q 565.3 221 564 224 L 560 223.5 L 561.5 222 Z " /><path fill="rgb(1,30,62)" stroke="rgb(1,30,62)" stroke-width="1" opacity="1" d="M 574 222 L 576 222.5 L 574 223.5 L 574 222 Z " /><path fill="rgb(1,30,62)" stroke="rgb(1,30,62)" stroke-width="1" opacity="1" d="M 577 222 L 580 223.5 L 577 224 L 577 222 Z " /><path fill="rgb(1,30,62)" stroke="rgb(1,30,62)" stroke-width="1" opacity="1" d="M 590 222 Q 593 221 592 224 Q 589 225 590 222 Z " /><path fill="rgb(1,30,62)" stroke="rgb(1,30,62)" stroke-width="1" opacity="1" d="M 596 222 Q 599 221 598 224 Q 595 225 596 222 Z " /><path fill="rgb(1,30,62)" stroke="rgb(1,30,62)" stroke-width="1" opacity="1" d="M 396.5 223 L 400 223.5 L 396.5 224 L 396.5 223 Z " /><path fill="rgb(1,30,62)" stroke="rgb(1,30,62)" stroke-width="1" opacity="1" d="M 401.5 223 L 408 223.5 L 401.5 224 L 401.5 223 Z " /><path fill="rgb(1,30,62)" stroke="rgb(1,30,62)" stroke-width="1" opacity="1" d="M 448.5 223 L 454 223.5 L 448.5 224 L 448.5 223 Z " /><path fill="rgb(1,30,62)" stroke="rgb(1,30,62)" stroke-width="1" opacity="1" d="M 480.5 223 L 484 223.5 L 480.5 224 L 480.5 223 Z " /><path fill="rgb(1,30,62)" stroke="rgb(1,30,62)" stroke-width="1" opacity="1" d="M 536.5 223 L 542 223.5 L 536.5 224 L 536.5 223 Z " /><path fill="rgb(1,30,62)" stroke="rgb(1,30,62)" stroke-width="1" opacity="1" d="M 552.5 223 L 558 223.5 L 552.5 224 L 552.5 223 Z " /><path fill="rgb(1,30,62)" stroke="rgb(1,30,62)" stroke-width="1" opacity="1" d="M 379.5 352 L 380.5 353 L 400 353.5 L 382.5 354 L 380.5 355 L 379.5 352 Z " /><path fill="rgb(1,30,62)" stroke="rgb(1,30,62)" stroke-width="1" opacity="1" d="M 616 352 Q 619.7 350.8 618 356 Q 614.3 357.2 616 352 Z " /><path fill="rgb(1,30,62)" stroke="rgb(1,30,62)" stroke-width="1" opacity="1" d="M 401.5 353 L 416 353.5 L 401.5 354 L 401.5 353 Z " /><path fill="rgb(1,30,62)" stroke="rgb(1,30,62)" stroke-width="1" opacity="1" d="M 381 356 Q 385.1 354.7 384 358 Q 380.9 357.3 381.5 360 L 376.5 360 L 376.5 359 L 378.5 358 Q 379.8 360.3 381 357.5 L 381 356 Z " /><path fill="rgb(1,30,62)" stroke="rgb(1,30,62)" stroke-width="1" opacity="1" d="M 104.5 359 L 120 359.5 L 104.5 360 L 104.5 359 Z " /><path fill="rgb(1,30,62)" stroke="rgb(1,30,62)" stroke-width="1" opacity="1" d="M 136.5 359 L 152 359.5 L 136.5 360 L 136.5 359 Z " /><path fill="rgb(1,30,62)" stroke="rgb(1,30,62)" stroke-width="1" opacity="1" d="M 168.5 359 L 184 359.5 L 168.5 360 L 168.5 359 Z " /><path fill="rgb(1,30,62)" stroke="rgb(1,30,62)" stroke-width="1" opacity="1" d="M 200.5 359 L 216 359.5 L 200.5 360 L 200.5 359 Z " /><path fill="rgb(1,30,62)" stroke="rgb(1,30,62)" stroke-width="1" opacity="1" d="M 232.5 359 L 248 359.5 L 232.5 360 L 232.5 359 Z " /><path fill="rgb(1,30,62)" stroke="rgb(1,30,62)" stroke-width="1" opacity="1" d="M 264.5 359 L 280 359.5 L 264.5 360 L 264.5 359 Z " /><path fill="rgb(1,30,62)" stroke="rgb(1,30,62)" stroke-width="1" opacity="1" d="M 296.5 359 L 312 359.5 L 296.5 360 L 296.5 359 Z " /><path fill="rgb(1,30,62)" stroke="rgb(1,30,62)" stroke-width="1" opacity="1" d="M 328.5 359 L 344 359.5 L 328.5 360 L 328.5 359 Z " /><path fill="rgb(1,30,62)" stroke="rgb(1,30,62)" stroke-width="1" opacity="1" d="M 360.5 359 L 368 359.5 L 360.5 360 L 360.5 359 Z " /><path fill="rgb(33,128,178)" stroke="rgb(33,128,178)" stroke-width="1" opacity="1" d="M 917.5 63 L 918 350.5 L 917 350.5 L 917.5 63 Z " /><path fill="rgb(33,128,178)" stroke="rgb(33,128,178)" stroke-width="1" opacity="1" d="M 844.5 195 L 847.5 196 L 849.5 196 L 858.5 196 L 868.5 199 L 883 210.5 L 887 218.5 L 867.5 232 L 868.5 230 L 886 218.5 L 884 213.5 L 873.5 203 Q 861.9 194.1 838.5 197 Q 823 200 815 210.5 Q 809.9 216.4 808 225.5 L 808 240.5 Q 811.5 257 823.5 265 L 837.5 273 L 858.5 282 L 866 288.5 Q 868.3 291.7 867 298.5 L 862.5 305 L 857.5 307 L 857.5 306 L 865 300.5 L 866 291.5 L 862.5 286 L 850.5 279 L 827.5 269 L 815 258.5 L 807 242.5 L 807 224.5 Q 810.9 210.4 821.5 203 L 833.5 197 L 844.5 195 Z " /><path fill="rgb(33,128,178)" stroke="rgb(33,128,178)" stroke-width="1" opacity="1" d="M 689.5 197 L 791 197.5 L 689.5 198 L 688 199.5 L 688 222 L 725.5 222 L 727 223.5 L 727 331 L 754 331.5 L 729.5 333 L 726 332 L 725 329.5 L 725 223 L 688.5 223 L 687 221.5 L 687 199.5 L 689.5 197 Z " /><path fill="rgb(33,128,178)" stroke="rgb(33,128,178)" stroke-width="1" opacity="1" d="M 792.5 199 L 793 221.5 L 791.5 223 L 755 223 L 754.5 330 L 754 222 L 792 222 L 792.5 199 Z " /><path fill="rgb(33,128,178)" stroke="rgb(33,128,178)" stroke-width="1" opacity="1" d="M 500 201 L 623 201.5 L 611.5 202 L 608 203 L 607 207.5 L 608 208.5 L 608 217 L 610.5 218 L 623 218.5 L 499 219 Q 497.7 215.7 502.5 217 L 504 215.5 L 504 203 Q 498.8 204.7 500 201 Z " /><path fill="rgb(33,128,178)" stroke="rgb(33,128,178)" stroke-width="1" opacity="1" d="M 842.5 221 Q 856.1 218.9 861 225.5 L 865 231.5 L 863 230.5 L 857.5 224 Q 852.8 220.7 843.5 222 L 837 226.5 L 836 235.5 L 840.5 242 L 872.5 257 L 888 269.5 L 893 277.5 Q 892.4 282.1 895 283.5 L 895 290.5 L 894 290.5 Q 892.7 270.8 879.5 263 L 841.5 244 L 836 238.5 Q 833.7 235.3 835 228.5 L 840.5 222 L 842.5 221 Z " /><path fill="rgb(33,128,178)" stroke="rgb(33,128,178)" stroke-width="1" opacity="1" d="M 819.5 292 L 821 292.5 L 800 304 L 800 306.5 L 809.5 319 L 825.5 329 L 835.5 332 L 842 332.5 L 834.5 333 Q 815.6 328.4 805 315.5 L 800 308.5 L 799 304.5 L 819.5 292 Z " /><path fill="rgb(33,128,178)" stroke="rgb(33,128,178)" stroke-width="1" opacity="1" d="M 822.5 292 L 832.5 303 L 840.5 307 L 856 307.5 L 846.5 309 L 833.5 305 L 823 294.5 L 822.5 292 Z " /><path fill="rgb(33,128,178)" stroke="rgb(33,128,178)" stroke-width="1" opacity="1" d="M 895.5 292 L 896 297.5 Q 893.2 299.2 895 305.5 L 891 314.5 L 882.5 324 L 870.5 331 L 863.5 333 L 843.5 334 L 843.5 333 Q 872.9 334.4 886 319.5 L 892 310.5 L 894 304.5 L 895.5 292 Z " /><path fill="rgb(33,128,178)" stroke="rgb(33,128,178)" stroke-width="1" opacity="1" d="M 624.5 353 L 625 356 L 916.5 356 L 917 354.5 L 918 354.5 L 917.5 357 L 624 357 L 624.5 353 Z " /><path fill="rgb(247,224,29)" stroke="rgb(247,224,29)" stroke-width="1" opacity="1" d="M 83 63 L 376 63.5 L 376 65.5 L 376 200.5 L 376.5 201 L 391.5 201 L 391.5 202 L 383 202.5 L 392.5 203 L 395 204 Q 396.7 207.5 396 214.5 L 393.5 217 L 384 217.5 L 388 218.5 L 376 219 L 376 356 L 83.5 356 L 82 352.5 L 83 351.5 L 83 80.5 L 82 79.5 L 82 66.5 L 83 63 Z M 304 195 L 289 198 L 280 203 Q 268 210 265 226 L 265 241 L 266 246 L 274 260 L 288 270 L 319 284 Q 324 286 325 293 Q 326 300 323 303 L 315 308 Q 310 307 309 309 L 299 308 L 292 305 L 280 292 L 257 306 L 261 314 Q 268 323 280 329 L 296 334 L 320 334 Q 332 332 341 325 Q 351 317 354 303 Q 356 291 353 284 L 350 276 L 344 267 L 332 258 L 298 242 L 294 238 L 293 233 L 295 226 L 303 221 Q 311 220 316 223 L 324 232 L 326 232 L 346 219 L 342 212 Q 335 203 325 198 L 318 196 L 304 195 Z M 214 197 L 214 297 L 211 305 L 206 308 Q 195 310 191 306 L 183 295 L 177 297 L 159 309 L 163 317 Q 172 330 191 334 L 212 334 Q 223 332 230 326 Q 236 320 240 312 L 243 298 L 243 198 L 243 197 L 214 197 Z " /><path fill="rgb(2,31,62)" stroke="rgb(2,31,62)" stroke-width="1" opacity="1" d="M 0 0 L 999 0 L 999 420 L 0 420 L 0 0 Z M 80 56 Q 79 59 82 58 L 80 61 L 82 63 L 79 64 L 79 355 L 82 358 L 376 358 L 378 357 L 378 223 L 380 221 L 379 223 Q 380 225 384 224 L 383 223 L 400 222 L 402 222 L 418 223 L 416 224 L 417 225 L 418 352 L 418 224 L 423 223 L 427 224 L 433 222 L 433 224 L 438 224 L 438 222 L 444 221 L 444 223 Q 447 220 456 222 L 459 221 L 464 222 L 471 221 L 473 221 L 485 222 L 488 224 L 488 222 Q 493 220 492 224 L 501 223 L 498 222 L 498 221 L 507 222 L 509 224 Q 513 225 512 222 L 516 222 Q 515 225 519 224 L 520 221 L 523 222 Q 527 223 529 221 L 531 222 Q 535 223 537 221 L 546 221 L 546 223 L 545 222 L 544 224 Q 549 226 547 221 L 566 221 L 566 224 L 569 224 L 570 221 L 570 224 L 571 224 L 572 221 L 621 221 L 620 223 L 620 356 Q 623 357 622 360 L 627 359 L 628 360 L 912 360 L 913 361 L 920 360 L 920 354 L 921 353 L 921 72 L 920 71 Q 919 66 921 65 L 919 60 L 918 61 L 629 61 L 625 61 L 623 60 L 622 63 L 621 62 L 620 72 L 618 74 L 618 191 L 620 191 L 620 197 L 618 196 L 615 198 L 620 199 L 601 199 L 601 198 L 600 196 L 585 196 Q 582 197 584 199 L 569 199 L 569 198 L 552 197 L 552 199 L 521 199 L 521 198 L 536 198 L 536 196 L 521 196 L 519 198 L 504 198 L 503 199 Q 498 200 497 198 L 480 198 L 479 199 L 441 199 L 440 197 L 433 197 L 432 196 L 381 196 L 378 198 L 378 63 Q 381 63 380 60 L 376 59 L 368 59 L 368 56 L 88 56 L 87 58 L 104 59 L 87 59 L 86 60 Q 83 59 85 58 L 85 56 L 80 56 Z M 376 56 Q 375 60 380 58 L 380 60 L 384 61 L 384 58 Q 381 59 382 57 L 381 57 L 376 56 Z M 616 56 Q 614 61 618 60 Q 620 55 616 56 Z M 622 56 Q 621 59 624 58 Q 625 55 622 56 Z M 633 56 L 634 58 L 640 58 L 640 56 L 633 56 Z M 918 56 Q 917 59 920 58 Q 921 55 918 56 Z M 382 62 Q 381 65 384 64 Q 385 61 382 62 Z M 381 64 L 380 192 L 379 193 L 379 194 L 384 194 Q 385 191 382 192 L 382 71 L 384 70 L 382 66 L 384 66 L 381 64 Z M 616 65 L 616 72 L 618 72 L 618 66 L 616 65 Z M 924 67 L 923 356 L 924 356 L 924 67 Z M 480 192 L 481 194 L 488 194 L 488 192 L 480 192 Z M 520 192 L 521 194 L 536 194 L 536 192 L 520 192 Z M 552 192 L 553 194 L 569 194 L 569 196 L 583 196 L 584 194 L 600 194 L 600 192 L 552 192 Z M 616 192 Q 615 195 618 194 Q 619 191 616 192 Z M 504 194 L 505 196 L 519 196 L 519 194 L 504 194 Z M 537 194 L 538 196 L 551 196 L 551 194 L 537 194 Z M 601 194 L 602 196 L 615 196 L 615 194 L 601 194 Z M 489 196 L 489 197 L 496 197 L 489 196 Z M 445 197 L 445 198 L 479 198 L 445 197 Z M 498 197 L 498 198 L 503 198 L 498 197 Z M 457 222 L 456 224 L 463 223 L 459 222 L 457 222 Z M 468 222 L 468 223 L 471 223 L 468 222 Z M 473 222 L 472 224 L 476 224 L 473 222 Z M 562 222 L 560 224 L 564 224 Q 565 221 562 222 Z M 574 222 L 574 224 L 576 223 L 574 222 Z M 577 222 L 577 224 L 580 224 L 577 222 Z M 590 222 Q 589 225 592 224 Q 593 221 590 222 Z M 596 222 Q 595 225 598 224 Q 599 221 596 222 Z M 397 223 L 397 224 L 400 224 L 397 223 Z M 402 223 L 402 224 L 408 224 L 402 223 Z M 449 223 L 449 224 L 454 224 L 449 223 Z M 481 223 L 481 224 L 484 224 L 481 223 Z M 537 223 L 537 224 L 542 224 L 537 223 Z M 553 223 L 553 224 L 558 224 L 553 223 Z M 380 352 L 381 355 L 383 354 L 400 354 L 381 353 L 380 352 Z M 616 352 Q 614 357 618 356 Q 620 351 616 352 Z M 402 353 L 402 354 L 416 354 L 402 353 Z M 381 356 L 381 358 Q 380 360 379 358 L 377 359 L 377 360 L 382 360 Q 381 357 384 358 Q 385 355 381 356 Z M 81 358 L 80 360 L 83 360 L 81 358 Z M 105 359 L 105 360 L 120 360 L 105 359 Z M 137 359 L 137 360 L 152 360 L 137 359 Z M 169 359 L 169 360 L 184 360 L 169 359 Z M 201 359 L 201 360 L 216 360 L 201 359 Z M 233 359 L 233 360 L 248 360 L 233 359 Z M 265 359 L 265 360 L 280 360 L 265 359 Z M 297 359 L 297 360 L 312 360 L 297 359 Z M 329 359 L 329 360 L 344 360 L 329 359 Z M 361 359 L 361 360 L 368 360 L 361 359 Z " /><path fill="rgb(2,31,62)" stroke="rgb(2,31,62)" stroke-width="1" opacity="1" d="M 120.5 58 L 136 58.5 L 120.5 59 L 120.5 58 Z " /><path fill="rgb(2,31,62)" stroke="rgb(2,31,62)" stroke-width="1" opacity="1" d="M 152.5 58 L 168 58.5 L 152.5 59 L 152.5 58 Z " /><path fill="rgb(2,31,62)" stroke="rgb(2,31,62)" stroke-width="1" opacity="1" d="M 184.5 58 L 200 58.5 L 184.5 59 L 184.5 58 Z " /><path fill="rgb(2,31,62)" stroke="rgb(2,31,62)" stroke-width="1" opacity="1" d="M 216.5 58 L 232 58.5 L 216.5 59 L 216.5 58 Z " /><path fill="rgb(2,31,62)" stroke="rgb(2,31,62)" stroke-width="1" opacity="1" d="M 248.5 58 L 264 58.5 L 248.5 59 L 248.5 58 Z " /><path fill="rgb(2,31,62)" stroke="rgb(2,31,62)" stroke-width="1" opacity="1" d="M 280.5 58 L 296 58.5 L 280.5 59 L 280.5 58 Z " /><path fill="rgb(2,31,62)" stroke="rgb(2,31,62)" stroke-width="1" opacity="1" d="M 312.5 58 L 328 58.5 L 312.5 59 L 312.5 58 Z " /><path fill="rgb(2,31,62)" stroke="rgb(2,31,62)" stroke-width="1" opacity="1" d="M 344.5 58 L 360 58.5 L 344.5 59 L 344.5 58 Z " /><path fill="rgb(2,31,62)" stroke="rgb(2,31,62)" stroke-width="1" opacity="1" d="M 424.5 221 L 427 221.5 L 424.5 222 L 424.5 221 Z " /><path fill="rgb(0,122,203)" stroke="rgb(0,122,203)" stroke-width="1" opacity="1" d="M 625 62 L 916.5 62 L 917 65 L 632 65 L 632 199.5 L 630 200 L 630 65.5 L 628.5 65 L 626 66.5 L 628 67.5 L 626 68 L 626 199.5 L 625 203 L 620 204 L 620 215.5 L 621.5 217 L 626 216 L 627 224.5 L 626 225.5 L 626 350.5 L 630 352 L 630 224.5 L 632 224 L 632 354 L 915.5 354 Q 918.3 352.8 916 351.5 L 916.5 73 L 917 350.5 L 918 353.5 L 917 356 L 625.5 356 L 625 353.5 L 624 352.5 L 624 220.5 L 623 218 L 610.5 218 L 608 217 L 607 206.5 L 608 203 Q 613.3 200.8 623 202 L 624 199.5 L 624 65.5 L 625 62 Z " /><path fill="rgb(0,122,203)" stroke="rgb(0,122,203)" stroke-width="1" opacity="1" d="M 688 192 Q 691 191 690 194 Q 687 195 688 192 Z " /><path fill="rgb(0,122,203)" stroke="rgb(0,122,203)" stroke-width="1" opacity="1" d="M 692 192 Q 697.6 190.1 696 195 L 692 194 L 692 192 Z " /><path fill="rgb(0,122,203)" stroke="rgb(0,122,203)" stroke-width="1" opacity="1" d="M 776 192 L 786.5 192 Q 785.5 195.3 791.5 194 L 791.5 195 L 776 194 L 776 192 Z " /><path fill="rgb(0,122,203)" stroke="rgb(0,122,203)" stroke-width="1" opacity="1" d="M 826 192 Q 829 191 828 194 L 824.5 195 L 824.5 194 Q 827.1 194.7 826 192 Z " /><path fill="rgb(0,122,203)" stroke="rgb(0,122,203)" stroke-width="1" opacity="1" d="M 834 192 L 836 192 Q 834.5 195.8 837.5 195 L 839.5 195 L 844 195.5 L 834.5 197 L 834 194.5 L 834 192 Z " /><path fill="rgb(0,122,203)" stroke="rgb(0,122,203)" stroke-width="1" opacity="1" d="M 858.5 192 Q 860.8 191.3 860 193.5 L 858.5 192 Z " /><path fill="rgb(0,122,203)" stroke="rgb(0,122,203)" stroke-width="1" opacity="1" d="M 862 192 Q 865 191 864 194 Q 861 195 862 192 Z " /><path fill="rgb(0,122,203)" stroke="rgb(0,122,203)" stroke-width="1" opacity="1" d="M 866 192 Q 868.7 190.9 868 193.5 L 869 193.5 L 869.5 192 L 870 193.5 Q 868.8 196.2 867.5 194 Q 864.9 194.7 866 192 Z " /><path fill="rgb(0,122,203)" stroke="rgb(0,122,203)" stroke-width="1" opacity="1" d="M 728.5 194 L 736 194.5 L 728.5 195 L 728.5 194 Z " /><path fill="rgb(0,122,203)" stroke="rgb(0,122,203)" stroke-width="1" opacity="1" d="M 849.5 195 Q 857.8 193.7 862 196.5 L 859.5 197 L 858.5 196 L 849.5 196 L 849.5 195 Z " /><path fill="rgb(0,122,203)" stroke="rgb(0,122,203)" stroke-width="1" opacity="1" d="M 688.5 196 L 689 197.5 L 687 198.5 L 688.5 196 Z " /><path fill="rgb(0,122,203)" stroke="rgb(0,122,203)" stroke-width="1" opacity="1" d="M 775.5 196 L 788 196.5 L 775.5 197 L 775.5 196 Z " /><path fill="rgb(0,122,203)" stroke="rgb(0,122,203)" stroke-width="1" opacity="1" d="M 831.5 196 L 832.5 198 L 829.5 199 L 831.5 196 Z " /><path fill="rgb(0,122,203)" stroke="rgb(0,122,203)" stroke-width="1" opacity="1" d="M 791.5 197 Q 793.8 196.3 793 198.5 L 791.5 197 Z " /><path fill="rgb(0,122,203)" stroke="rgb(0,122,203)" stroke-width="1" opacity="1" d="M 824.5 197 L 827.5 199 L 827.5 200 Q 818.1 203.6 813 211.5 L 811.5 214 L 811 211 L 813 211 L 813 209 L 815 209 L 815 207 L 817 207 L 817 205 L 819 205 Q 817.9 202.3 820.5 203 L 826 199.5 L 824.5 197 Z " /><path fill="rgb(0,122,203)" stroke="rgb(0,122,203)" stroke-width="1" opacity="1" d="M 864.5 197 L 868 198.5 L 866.5 199 L 864.5 197 Z " /><path fill="rgb(0,122,203)" stroke="rgb(0,122,203)" stroke-width="1" opacity="1" d="M 871.5 198 L 872.5 201 L 874.5 200 L 875.5 203 Q 878.8 204.1 878 201.5 L 880 200.5 L 879 204.5 L 882.5 209 L 884 208.5 Q 883.3 211.1 886 210 Q 885 207 888 208 L 888 212 Q 885 210.8 886 214.5 L 886.5 216 L 877.5 205 L 869 199.5 L 871.5 198 Z " /><path fill="rgb(0,122,203)" stroke="rgb(0,122,203)" stroke-width="1" opacity="1" d="M 793.5 201 L 794 203.5 L 793 203.5 L 793.5 201 Z " /><path fill="rgb(0,122,203)" stroke="rgb(0,122,203)" stroke-width="1" opacity="1" d="M 809.5 213 L 809.5 215 L 811 215.5 L 809.5 218 L 808 214.5 L 809.5 213 Z " /><path fill="rgb(0,122,203)" stroke="rgb(0,122,203)" stroke-width="1" opacity="1" d="M 630 216 Q 633.3 214.7 632 219.5 L 630 218.5 L 630 216 Z " /><path fill="rgb(0,122,203)" stroke="rgb(0,122,203)" stroke-width="1" opacity="1" d="M 795.5 216 L 796 220.5 L 795 220.5 L 795.5 216 Z " /><path fill="rgb(0,122,203)" stroke="rgb(0,122,203)" stroke-width="1" opacity="1" d="M 887 217 Q 890 216 889 219 Q 886.3 217.9 887 220.5 Q 884.6 224.6 879 225.5 L 880 228 L 876 227 Q 877.5 230.8 874.5 230 L 873 229.5 Q 874.1 232.8 871.5 232 Q 868.5 230.5 871.5 229 L 887 218.5 L 887 217 Z " /><path fill="rgb(0,122,203)" stroke="rgb(0,122,203)" stroke-width="1" opacity="1" d="M 793.5 220 L 794 221.5 L 793 224 L 783.5 225 L 782.5 224 L 761.5 224 L 756.5 225 L 755.5 223 L 791.5 223 L 793 221.5 L 793.5 220 Z " /><path fill="rgb(0,122,203)" stroke="rgb(0,122,203)" stroke-width="1" opacity="1" d="M 808.5 220 L 808 221.5 L 807.5 224 L 807 221.5 L 808.5 220 Z " /><path fill="rgb(0,122,203)" stroke="rgb(0,122,203)" stroke-width="1" opacity="1" d="M 687.5 222 L 688.5 223 L 725 223.5 Q 724 226 719.5 225 L 718.5 224 L 697.5 224 L 694.5 225 L 692.5 224 L 689.5 225 L 687 224 L 687.5 222 Z " /><path fill="rgb(0,122,203)" stroke="rgb(0,122,203)" stroke-width="1" opacity="1" d="M 843.5 222 L 853 222.5 L 847.5 224 L 845.5 223 L 841.5 225 L 839 225.5 L 840 229.5 L 837 227.5 L 840.5 223 L 843.5 222 Z " /><path fill="rgb(0,122,203)" stroke="rgb(0,122,203)" stroke-width="1" opacity="1" d="M 855.5 223 L 863 229.5 L 864.5 232 L 868.5 231 L 869 233 Q 863.6 234.5 862 231.5 L 858.5 226 L 858 230 Q 854.7 231.3 856 226.5 L 856.5 225 Q 853.7 225.7 855.5 223 Z " /><path fill="rgb(0,122,203)" stroke="rgb(0,122,203)" stroke-width="1" opacity="1" d="M 806.5 226 L 807 237.5 L 806 237.5 L 806 228.5 L 804.5 228 L 804.5 227 L 806.5 226 Z " /><path fill="rgb(0,122,203)" stroke="rgb(0,122,203)" stroke-width="1" opacity="1" d="M 688.5 227 L 692 227.5 L 688.5 228 L 688.5 227 Z " /><path fill="rgb(0,122,203)" stroke="rgb(0,122,203)" stroke-width="1" opacity="1" d="M 696.5 227 L 700 227.5 L 696.5 228 L 696.5 227 Z " /><path fill="rgb(0,122,203)" stroke="rgb(0,122,203)" stroke-width="1" opacity="1" d="M 704.5 227 L 708 227.5 L 704.5 228 L 704.5 227 Z " /><path fill="rgb(0,122,203)" stroke="rgb(0,122,203)" stroke-width="1" opacity="1" d="M 712.5 227 L 716 227.5 L 712.5 228 L 712.5 227 Z " /><path fill="rgb(0,122,203)" stroke="rgb(0,122,203)" stroke-width="1" opacity="1" d="M 720.5 227 L 724 227.5 L 720.5 228 L 720.5 227 Z " /><path fill="rgb(0,122,203)" stroke="rgb(0,122,203)" stroke-width="1" opacity="1" d="M 756.5 227 L 792 227.5 L 756.5 228 L 756.5 227 Z " /><path fill="rgb(0,122,203)" stroke="rgb(0,122,203)" stroke-width="1" opacity="1" d="M 836.5 230 L 838 233.5 L 836.5 236 L 836.5 230 Z " /><path fill="rgb(0,122,203)" stroke="rgb(0,122,203)" stroke-width="1" opacity="1" d="M 720.5 232 L 722 233.5 L 722 240 L 724 240.5 L 724 327 L 722 326.5 L 722 240.5 L 720 239.5 L 720.5 232 Z " /><path fill="rgb(0,122,203)" stroke="rgb(0,122,203)" stroke-width="1" opacity="1" d="M 802.5 232 L 803 233.5 L 802 240 L 800 240 L 800 234 Q 802.8 235 802.5 232 Z " /><path fill="rgb(0,122,203)" stroke="rgb(0,122,203)" stroke-width="1" opacity="1" d="M 837.5 237 L 841 239.5 L 843 242.5 L 844.5 242 Q 848.9 240.5 848 243.5 L 847.5 245 L 850 243.5 L 852 240.5 L 853 240.5 L 852 244 L 850 244.5 L 851 247 Q 843.1 245.1 838 239.5 L 837.5 237 Z " /><path fill="rgb(0,122,203)" stroke="rgb(0,122,203)" stroke-width="1" opacity="1" d="M 854 242 Q 857 241 856 244 Q 853 245 854 242 Z " /><path fill="rgb(0,122,203)" stroke="rgb(0,122,203)" stroke-width="1" opacity="1" d="M 807.5 243 L 809 248 Q 804.9 249.2 807.5 243 Z " /><path fill="rgb(0,122,203)" stroke="rgb(0,122,203)" stroke-width="1" opacity="1" d="M 852.5 245 Q 857.3 243.3 856 247.5 Q 854.8 250.3 853.5 248 L 852 247.5 L 854 246.5 L 852.5 245 Z " /><path fill="rgb(0,122,203)" stroke="rgb(0,122,203)" stroke-width="1" opacity="1" d="M 858.5 248 L 860 248.5 L 858 249.5 L 860 250.5 L 858.5 251 L 856 249.5 L 858.5 248 Z " /><path fill="rgb(0,122,203)" stroke="rgb(0,122,203)" stroke-width="1" opacity="1" d="M 809.5 249 L 811 251.5 L 809 252 L 809.5 249 Z " /><path fill="rgb(0,122,203)" stroke="rgb(0,122,203)" stroke-width="1" opacity="1" d="M 869.5 250 Q 873.3 249 872 252 L 868 251.5 L 869.5 250 Z " /><path fill="rgb(0,122,203)" stroke="rgb(0,122,203)" stroke-width="1" opacity="1" d="M 861.5 251 Q 865.3 250 864 253 L 861.5 251 Z " /><path fill="rgb(0,122,203)" stroke="rgb(0,122,203)" stroke-width="1" opacity="1" d="M 866.5 252 L 867 254 L 870.5 255 L 872 254.5 L 871.5 257 L 865 253.5 L 866.5 252 Z " /><path fill="rgb(0,122,203)" stroke="rgb(0,122,203)" stroke-width="1" opacity="1" d="M 811.5 253 L 819.5 263 L 824 266.5 L 823.5 268 L 821.5 265 Q 820.3 267.3 819 264.5 L 818.5 263 L 818 266 L 814 263.5 Q 813.2 260.9 816.5 262 L 816.5 261 Q 813.9 261.7 815 259 L 813 259 L 813 257.5 Q 809.9 256.4 811.5 253 Z " /><path fill="rgb(0,122,203)" stroke="rgb(0,122,203)" stroke-width="1" opacity="1" d="M 873.5 257 L 874.5 259 L 873.5 257 Z " /><path fill="rgb(0,122,203)" stroke="rgb(0,122,203)" stroke-width="1" opacity="1" d="M 876 258 L 880 258 L 880 259.5 L 879.5 261 L 885.5 265 Q 886.8 262.8 888 265.5 Q 885.5 267 889 268.5 Q 887.9 271.8 890.5 271 L 893 275.5 L 892.5 277 Q 888.9 269.1 882.5 264 L 876 259.5 L 876 258 Z " /><path fill="rgb(0,122,203)" stroke="rgb(0,122,203)" stroke-width="1" opacity="1" d="M 825.5 267 Q 828.2 268.3 826 269.5 Q 827 273.3 824 272 L 825.5 267 Z " /><path fill="rgb(0,122,203)" stroke="rgb(0,122,203)" stroke-width="1" opacity="1" d="M 828.5 269 L 835 272.5 L 831 273 L 830.5 271 L 828.5 271 L 827 270.5 L 828.5 269 Z " /><path fill="rgb(0,122,203)" stroke="rgb(0,122,203)" stroke-width="1" opacity="1" d="M 816.5 270 L 817.5 272 Q 814.7 272.7 816.5 270 Z " /><path fill="rgb(0,122,203)" stroke="rgb(0,122,203)" stroke-width="1" opacity="1" d="M 836.5 273 L 848 278.5 L 844 280 Q 845.8 275.5 840.5 277 L 836.5 273 Z " /><path fill="rgb(0,122,203)" stroke="rgb(0,122,203)" stroke-width="1" opacity="1" d="M 895.5 276 L 896 277.5 L 895 280.5 L 894.5 283 L 893 278 Q 895.8 279 895.5 276 Z " /><path fill="rgb(0,122,203)" stroke="rgb(0,122,203)" stroke-width="1" opacity="1" d="M 832 278 Q 835 277 834 280 Q 831 281 832 278 Z " /><path fill="rgb(0,122,203)" stroke="rgb(0,122,203)" stroke-width="1" opacity="1" d="M 836 278 L 840 279.5 L 836 280 L 836 278 Z " /><path fill="rgb(0,122,203)" stroke="rgb(0,122,203)" stroke-width="1" opacity="1" d="M 849.5 279 L 852 280.5 L 852 284 Q 855.7 282.5 855 285.5 L 856 285.5 L 857 283.5 L 853 283 Q 851.9 280.3 854.5 281 L 864 287.5 L 865 289.5 L 863 290 L 862.5 287 L 860.5 288 L 859.5 285 L 856 286.5 Q 856.8 288.8 854.5 288 L 854.5 286 Q 851.2 284.9 852 287.5 L 851 287.5 L 852 284 L 848.5 285 L 848.5 284 Q 851.1 284.7 850 282 Q 847.3 283.1 848 280.5 L 849.5 279 Z " /><path fill="rgb(0,122,203)" stroke="rgb(0,122,203)" stroke-width="1" opacity="1" d="M 895.5 284 L 897 286.5 L 897 300.5 L 895.5 304 L 895 298.5 Q 897.2 297.3 896 292.5 L 895 291.5 L 895.5 284 Z " /><path fill="rgb(0,122,203)" stroke="rgb(0,122,203)" stroke-width="1" opacity="1" d="M 814 288 Q 817 287 816 290 Q 813 291 814 288 Z " /><path fill="rgb(0,122,203)" stroke="rgb(0,122,203)" stroke-width="1" opacity="1" d="M 828.5 288 Q 833.3 286.7 832 290 Q 828.2 290.8 828.5 288 Z " /><path fill="rgb(0,122,203)" stroke="rgb(0,122,203)" stroke-width="1" opacity="1" d="M 817 291 L 824.5 291 L 826.5 293 L 832 292 L 831.5 294 L 824.5 294 Q 823.8 291.3 819.5 292 L 811.5 297 L 811 295 L 814 294.5 L 812 293.5 L 815.5 292 L 817 292.5 L 817 291 Z " /><path fill="rgb(0,122,203)" stroke="rgb(0,122,203)" stroke-width="1" opacity="1" d="M 865.5 291 L 866 298 L 864 297.5 L 865 295.5 L 864 293.5 L 865.5 291 Z " /><path fill="rgb(0,122,203)" stroke="rgb(0,122,203)" stroke-width="1" opacity="1" d="M 808 294 L 810 294.5 L 809 296.5 Q 811.3 297.8 808.5 299 L 804.5 301 L 805.5 299 Q 807.8 299.8 807 297.5 L 808 294 Z " /><path fill="rgb(0,122,203)" stroke="rgb(0,122,203)" stroke-width="1" opacity="1" d="M 825.5 295 L 828 295.5 L 827.5 297 L 830.5 296 L 830.5 298 Q 832.8 297.3 832 299.5 L 831.5 301 Q 833.8 300.3 833 302.5 L 825.5 295 Z " /><path fill="rgb(0,122,203)" stroke="rgb(0,122,203)" stroke-width="1" opacity="1" d="M 800 296 Q 803 295 802 298 Q 799 299 800 296 Z " /><path fill="rgb(0,122,203)" stroke="rgb(0,122,203)" stroke-width="1" opacity="1" d="M 805.5 296 L 804.5 298 L 805.5 296 Z " /><path fill="rgb(0,122,203)" stroke="rgb(0,122,203)" stroke-width="1" opacity="1" d="M 838 296 L 840 296.5 L 840 303 L 838 302.5 L 838 296 Z " /><path fill="rgb(0,122,203)" stroke="rgb(0,122,203)" stroke-width="1" opacity="1" d="M 862.5 298 L 865 299 L 863.5 302 Q 860 302.8 862.5 298 Z " /><path fill="rgb(0,122,203)" stroke="rgb(0,122,203)" stroke-width="1" opacity="1" d="M 800.5 300 L 803 300.5 L 801.5 303 L 799 304.5 L 798.5 306 L 798 304.5 L 800.5 300 Z " /><path fill="rgb(0,122,203)" stroke="rgb(0,122,203)" stroke-width="1" opacity="1" d="M 899.5 300 L 900 303.5 L 899 303.5 L 899.5 300 Z " /><path fill="rgb(0,122,203)" stroke="rgb(0,122,203)" stroke-width="1" opacity="1" d="M 856 302 L 862 303.5 Q 860.1 307.6 853.5 307 L 852.5 305 L 854 305.5 L 854.5 304 L 856.5 305 L 856 303.5 L 856 302 Z " /><path fill="rgb(0,122,203)" stroke="rgb(0,122,203)" stroke-width="1" opacity="1" d="M 834.5 303 L 837 304.5 L 835.5 305 L 834.5 303 Z " /><path fill="rgb(0,122,203)" stroke="rgb(0,122,203)" stroke-width="1" opacity="1" d="M 838 304 L 844 305 Q 845.3 308.3 840.5 307 L 838 306 L 838 304 Z " /><path fill="rgb(0,122,203)" stroke="rgb(0,122,203)" stroke-width="1" opacity="1" d="M 894.5 306 L 896 308.5 L 894 308.5 Q 893.3 310.8 895.5 310 L 895.5 311 L 893 309.5 L 894.5 306 Z " /><path fill="rgb(0,122,203)" stroke="rgb(0,122,203)" stroke-width="1" opacity="1" d="M 799.5 307 Q 804.1 315.9 811.5 322 L 823 328.5 L 819 329 L 818.5 327 L 816 328 L 815.5 326 L 812.5 328 L 810 327.5 L 809.5 323 L 808 323.5 L 809 321.5 Q 807.8 319 804 320 L 802.5 317 L 802 320 Q 798.7 321.3 800 316.5 L 801 314.5 L 801 312.5 Q 802.1 309.2 799.5 310 L 799.5 312 Q 797.3 312.8 798 310.5 L 799.5 307 Z " /><path fill="rgb(0,122,203)" stroke="rgb(0,122,203)" stroke-width="1" opacity="1" d="M 792 310 Q 795 309 794 312 Q 791 313 792 310 Z " /><path fill="rgb(0,122,203)" stroke="rgb(0,122,203)" stroke-width="1" opacity="1" d="M 892.5 311 L 893 314 L 891 313.5 L 892.5 311 Z " /><path fill="rgb(0,122,203)" stroke="rgb(0,122,203)" stroke-width="1" opacity="1" d="M 890.5 315 L 892 315.5 L 889.5 317 L 890.5 315 Z " /><path fill="rgb(0,122,203)" stroke="rgb(0,122,203)" stroke-width="1" opacity="1" d="M 888.5 318 Q 893.3 316.7 892 320 L 888 320 L 888 321.5 L 884 323.5 L 884 325 Q 880.3 323.5 881 326.5 L 881.5 328 Q 879.3 327.3 880 329.5 L 878.5 329 L 875.5 329 Q 876.5 332 871.5 331 L 872.5 329 L 877.5 327 L 879.5 328 Q 877.8 326 881.5 324 L 888.5 318 Z " /><path fill="rgb(0,122,203)" stroke="rgb(0,122,203)" stroke-width="1" opacity="1" d="M 886 326 Q 889 325 888 328 Q 885 329 886 326 Z " /><path fill="rgb(0,122,203)" stroke="rgb(0,122,203)" stroke-width="1" opacity="1" d="M 758 328 Q 761.7 326.8 760 332 Q 756.3 333.5 757 330.5 L 758 328 Z " /><path fill="rgb(0,122,203)" stroke="rgb(0,122,203)" stroke-width="1" opacity="1" d="M 824.5 329 L 828 330.5 L 824.5 332 L 824.5 329 Z " /><path fill="rgb(0,122,203)" stroke="rgb(0,122,203)" stroke-width="1" opacity="1" d="M 725.5 330 L 726 332 L 729 332.5 L 728 336 L 724 335.5 L 726 334.5 L 724 333.5 L 725.5 330 Z " /><path fill="rgb(0,122,203)" stroke="rgb(0,122,203)" stroke-width="1" opacity="1" d="M 754.5 330 L 755 333 L 736 332.5 L 754 332 L 754.5 330 Z " /><path fill="rgb(0,122,203)" stroke="rgb(0,122,203)" stroke-width="1" opacity="1" d="M 829.5 331 L 834 332.5 L 832 333 L 832 336 L 824 336 Q 822.9 333.3 825.5 334 L 829.5 335 L 831 333.5 L 829.5 331 Z " /><path fill="rgb(0,122,203)" stroke="rgb(0,122,203)" stroke-width="1" opacity="1" d="M 867.5 331 L 870 331 L 870 336 Q 866.7 337.1 868 333 L 864.5 333 L 864.5 332 L 867.5 331 Z " /><path fill="rgb(0,122,203)" stroke="rgb(0,122,203)" stroke-width="1" opacity="1" d="M 837.5 333 L 856.5 334 L 861 333 Q 862.4 337 855.5 335 L 854.5 336 L 846.5 336 L 838.5 334 L 834.5 336 L 834.5 335 L 837.5 333 Z " /><path fill="rgb(0,122,203)" stroke="rgb(0,122,203)" stroke-width="1" opacity="1" d="M 876.5 333 Q 881.8 331.5 880 336 L 878 336 Q 879.1 333.3 876.5 334 L 876.5 333 Z " /><path fill="rgb(0,122,203)" stroke="rgb(0,122,203)" stroke-width="1" opacity="1" d="M 873.5 334 L 874 336 L 872 335.5 L 873.5 334 Z " /><path fill="rgb(55,66,26)" stroke="rgb(55,66,26)" stroke-width="1" opacity="1" d="M 82.5 62 L 375 62.5 L 82 63 L 81.5 357 L 81 63.5 L 82.5 62 Z " /><path fill="rgb(55,66,26)" stroke="rgb(55,66,26)" stroke-width="1" opacity="1" d="M 376.5 62 L 377 200 L 527 200.5 L 376 201 L 376.5 62 Z " /><path fill="rgb(55,66,26)" stroke="rgb(55,66,26)" stroke-width="1" opacity="1" d="M 298.5 196 L 314 196.5 L 298.5 197 L 298.5 196 Z " /><path fill="rgb(55,66,26)" stroke="rgb(55,66,26)" stroke-width="1" opacity="1" d="M 293.5 197 L 296 197.5 L 293.5 198 L 293.5 197 Z " /><path fill="rgb(55,66,26)" stroke="rgb(55,66,26)" stroke-width="1" opacity="1" d="M 317.5 197 L 320 197.5 L 317.5 198 L 317.5 197 Z " /><path fill="rgb(55,66,26)" stroke="rgb(55,66,26)" stroke-width="1" opacity="1" d="M 214.5 198 L 215 297.5 L 214 297.5 L 214.5 198 Z " /><path fill="rgb(55,66,26)" stroke="rgb(55,66,26)" stroke-width="1" opacity="1" d="M 329.5 201 L 330.5 203 L 329.5 201 Z " /><path fill="rgb(55,66,26)" stroke="rgb(55,66,26)" stroke-width="1" opacity="1" d="M 332.5 203 L 334.5 206 L 332.5 203 Z " /><path fill="rgb(55,66,26)" stroke="rgb(55,66,26)" stroke-width="1" opacity="1" d="M 277.5 205 L 273.5 210 L 277.5 205 Z " /><path fill="rgb(55,66,26)" stroke="rgb(55,66,26)" stroke-width="1" opacity="1" d="M 340.5 211 L 341.5 213 L 340.5 211 Z " /><path fill="rgb(55,66,26)" stroke="rgb(55,66,26)" stroke-width="1" opacity="1" d="M 270.5 214 L 269.5 216 L 270.5 214 Z " /><path fill="rgb(55,66,26)" stroke="rgb(55,66,26)" stroke-width="1" opacity="1" d="M 376 219 L 523 219.5 L 377 220 L 376.5 357 L 376 219 Z " /><path fill="rgb(55,66,26)" stroke="rgb(55,66,26)" stroke-width="1" opacity="1" d="M 524.5 219 L 527 219.5 L 524.5 220 L 524.5 219 Z " /><path fill="rgb(55,66,26)" stroke="rgb(55,66,26)" stroke-width="1" opacity="1" d="M 301.5 220 L 304 220.5 L 301.5 221 L 301.5 220 Z " /><path fill="rgb(55,66,26)" stroke="rgb(55,66,26)" stroke-width="1" opacity="1" d="M 309.5 220 L 312 220.5 L 309.5 221 L 309.5 220 Z " /><path fill="rgb(55,66,26)" stroke="rgb(55,66,26)" stroke-width="1" opacity="1" d="M 297.5 222 L 294.5 226 L 297.5 222 Z " /><path fill="rgb(55,66,26)" stroke="rgb(55,66,26)" stroke-width="1" opacity="1" d="M 266.5 223 L 267 225.5 L 266 225.5 L 266.5 223 Z " /><path fill="rgb(55,66,26)" stroke="rgb(55,66,26)" stroke-width="1" opacity="1" d="M 336.5 223 L 335.5 225 L 336.5 223 Z " /><path fill="rgb(55,66,26)" stroke="rgb(55,66,26)" stroke-width="1" opacity="1" d="M 333.5 225 L 332.5 227 L 333.5 225 Z " /><path fill="rgb(55,66,26)" stroke="rgb(55,66,26)" stroke-width="1" opacity="1" d="M 321.5 228 L 322.5 230 L 321.5 228 Z " /><path fill="rgb(55,66,26)" stroke="rgb(55,66,26)" stroke-width="1" opacity="1" d="M 265.5 229 L 266 236.5 L 265 236.5 L 265.5 229 Z " /><path fill="rgb(55,66,26)" stroke="rgb(55,66,26)" stroke-width="1" opacity="1" d="M 292.5 230 L 293 234.5 L 292 234.5 L 292.5 230 Z " /><path fill="rgb(55,66,26)" stroke="rgb(55,66,26)" stroke-width="1" opacity="1" d="M 325.5 230 L 324.5 232 L 323 231.5 L 325.5 230 Z " /><path fill="rgb(55,66,26)" stroke="rgb(55,66,26)" stroke-width="1" opacity="1" d="M 294.5 239 L 298.5 244 L 294.5 239 Z " /><path fill="rgb(55,66,26)" stroke="rgb(55,66,26)" stroke-width="1" opacity="1" d="M 310.5 249 L 314 250.5 L 312.5 251 L 310.5 249 Z " /><path fill="rgb(55,66,26)" stroke="rgb(55,66,26)" stroke-width="1" opacity="1" d="M 269.5 250 L 271 252.5 L 269 251.5 L 269.5 250 Z " /><path fill="rgb(55,66,26)" stroke="rgb(55,66,26)" stroke-width="1" opacity="1" d="M 273.5 257 L 279.5 264 L 273.5 257 Z " /><path fill="rgb(55,66,26)" stroke="rgb(55,66,26)" stroke-width="1" opacity="1" d="M 330.5 258 L 331.5 260 L 330.5 258 Z " /><path fill="rgb(55,66,26)" stroke="rgb(55,66,26)" stroke-width="1" opacity="1" d="M 336.5 262 L 337.5 264 L 336.5 262 Z " /><path fill="rgb(55,66,26)" stroke="rgb(55,66,26)" stroke-width="1" opacity="1" d="M 281.5 264 L 283.5 267 L 281.5 264 Z " /><path fill="rgb(55,66,26)" stroke="rgb(55,66,26)" stroke-width="1" opacity="1" d="M 340.5 265 L 345.5 271 L 340.5 265 Z " /><path fill="rgb(55,66,26)" stroke="rgb(55,66,26)" stroke-width="1" opacity="1" d="M 287.5 268 L 288.5 270 L 287.5 268 Z " /><path fill="rgb(55,66,26)" stroke="rgb(55,66,26)" stroke-width="1" opacity="1" d="M 346.5 272 L 347.5 274 L 346.5 272 Z " /><path fill="rgb(55,66,26)" stroke="rgb(55,66,26)" stroke-width="1" opacity="1" d="M 310.5 279 L 314 280.5 L 312.5 281 L 310.5 279 Z " /><path fill="rgb(55,66,26)" stroke="rgb(55,66,26)" stroke-width="1" opacity="1" d="M 315.5 281 L 316.5 283 L 315.5 281 Z " /><path fill="rgb(55,66,26)" stroke="rgb(55,66,26)" stroke-width="1" opacity="1" d="M 321.5 285 L 322.5 287 L 321.5 285 Z " /><path fill="rgb(55,66,26)" stroke="rgb(55,66,26)" stroke-width="1" opacity="1" d="M 352.5 285 L 353 287.5 L 352 287.5 L 352.5 285 Z " /><path fill="rgb(55,66,26)" stroke="rgb(55,66,26)" stroke-width="1" opacity="1" d="M 325.5 291 L 326 293.5 L 325 293.5 L 325.5 291 Z " /><path fill="rgb(55,66,26)" stroke="rgb(55,66,26)" stroke-width="1" opacity="1" d="M 280.5 294 L 281.5 296 L 280.5 294 Z " /><path fill="rgb(55,66,26)" stroke="rgb(55,66,26)" stroke-width="1" opacity="1" d="M 181.5 295 L 183.5 298 L 181.5 295 Z " /><path fill="rgb(55,66,26)" stroke="rgb(55,66,26)" stroke-width="1" opacity="1" d="M 177.5 297 L 176.5 299 L 177.5 297 Z " /><path fill="rgb(55,66,26)" stroke="rgb(55,66,26)" stroke-width="1" opacity="1" d="M 241.5 298 L 242 301.5 L 241 301.5 L 241.5 298 Z " /><path fill="rgb(55,66,26)" stroke="rgb(55,66,26)" stroke-width="1" opacity="1" d="M 283.5 298 L 288.5 304 L 283.5 298 Z " /><path fill="rgb(55,66,26)" stroke="rgb(55,66,26)" stroke-width="1" opacity="1" d="M 267.5 299 L 266.5 301 L 267.5 299 Z " /><path fill="rgb(55,66,26)" stroke="rgb(55,66,26)" stroke-width="1" opacity="1" d="M 172.5 300 L 171.5 302 L 172.5 300 Z " /><path fill="rgb(55,66,26)" stroke="rgb(55,66,26)" stroke-width="1" opacity="1" d="M 324.5 301 L 323.5 303 L 324.5 301 Z " /><path fill="rgb(55,66,26)" stroke="rgb(55,66,26)" stroke-width="1" opacity="1" d="M 186.5 302 L 190.5 307 L 186.5 302 Z " /><path fill="rgb(55,66,26)" stroke="rgb(55,66,26)" stroke-width="1" opacity="1" d="M 352.5 302 L 353 304.5 L 352 304.5 L 352.5 302 Z " /><path fill="rgb(55,66,26)" stroke="rgb(55,66,26)" stroke-width="1" opacity="1" d="M 167.5 303 L 166.5 305 L 167.5 303 Z " /><path fill="rgb(55,66,26)" stroke="rgb(55,66,26)" stroke-width="1" opacity="1" d="M 212.5 303 L 211.5 305 L 212.5 303 Z " /><path fill="rgb(55,66,26)" stroke="rgb(55,66,26)" stroke-width="1" opacity="1" d="M 260.5 303 L 259.5 305 L 260.5 303 Z " /><path fill="rgb(55,66,26)" stroke="rgb(55,66,26)" stroke-width="1" opacity="1" d="M 240.5 304 L 241 306.5 L 240 306.5 L 240.5 304 Z " /><path fill="rgb(55,66,26)" stroke="rgb(55,66,26)" stroke-width="1" opacity="1" d="M 257.5 305 L 259 307.5 L 257 306.5 L 257.5 305 Z " /><path fill="rgb(55,66,26)" stroke="rgb(55,66,26)" stroke-width="1" opacity="1" d="M 320.5 305 L 319.5 307 L 320.5 305 Z " /><path fill="rgb(55,66,26)" stroke="rgb(55,66,26)" stroke-width="1" opacity="1" d="M 209.5 306 L 208.5 308 L 209.5 306 Z " /><path fill="rgb(55,66,26)" stroke="rgb(55,66,26)" stroke-width="1" opacity="1" d="M 198.5 309 L 202 309.5 L 198.5 310 L 198.5 309 Z " /><path fill="rgb(55,66,26)" stroke="rgb(55,66,26)" stroke-width="1" opacity="1" d="M 303.5 309 L 311 309.5 L 303.5 310 L 303.5 309 Z " /><path fill="rgb(55,66,26)" stroke="rgb(55,66,26)" stroke-width="1" opacity="1" d="M 161.5 312 L 162.5 314 L 161.5 312 Z " /><path fill="rgb(55,66,26)" stroke="rgb(55,66,26)" stroke-width="1" opacity="1" d="M 261.5 312 L 262.5 314 L 261.5 312 Z " /><path fill="rgb(55,66,26)" stroke="rgb(55,66,26)" stroke-width="1" opacity="1" d="M 348.5 314 L 347.5 316 L 348.5 314 Z " /><path fill="rgb(55,66,26)" stroke="rgb(55,66,26)" stroke-width="1" opacity="1" d="M 163.5 315 L 164.5 317 L 163.5 315 Z " /><path fill="rgb(55,66,26)" stroke="rgb(55,66,26)" stroke-width="1" opacity="1" d="M 236.5 316 L 235.5 318 L 236.5 316 Z " /><path fill="rgb(55,66,26)" stroke="rgb(55,66,26)" stroke-width="1" opacity="1" d="M 265.5 317 L 267.5 320 L 265.5 317 Z " /><path fill="rgb(55,66,26)" stroke="rgb(55,66,26)" stroke-width="1" opacity="1" d="M 346.5 317 L 339.5 325 L 346.5 317 Z " /><path fill="rgb(55,66,26)" stroke="rgb(55,66,26)" stroke-width="1" opacity="1" d="M 166.5 319 L 169.5 323 L 166.5 319 Z " /><path fill="rgb(55,66,26)" stroke="rgb(55,66,26)" stroke-width="1" opacity="1" d="M 234.5 319 L 228.5 326 L 234.5 319 Z " /><path fill="rgb(55,66,26)" stroke="rgb(55,66,26)" stroke-width="1" opacity="1" d="M 271.5 322 L 272.5 324 L 271.5 322 Z " /><path fill="rgb(55,66,26)" stroke="rgb(55,66,26)" stroke-width="1" opacity="1" d="M 274.5 324 L 275.5 326 L 274.5 324 Z " /><path fill="rgb(55,66,26)" stroke="rgb(55,66,26)" stroke-width="1" opacity="1" d="M 173.5 325 L 174.5 327 L 173.5 325 Z " /><path fill="rgb(55,66,26)" stroke="rgb(55,66,26)" stroke-width="1" opacity="1" d="M 188.5 332 L 191 332.5 L 188.5 333 L 188.5 332 Z " /><path fill="rgb(55,66,26)" stroke="rgb(55,66,26)" stroke-width="1" opacity="1" d="M 211.5 332 L 214 332.5 L 211.5 333 L 211.5 332 Z " /><path fill="rgb(55,66,26)" stroke="rgb(55,66,26)" stroke-width="1" opacity="1" d="M 293.5 332 L 296 332.5 L 293.5 333 L 293.5 332 Z " /><path fill="rgb(55,66,26)" stroke="rgb(55,66,26)" stroke-width="1" opacity="1" d="M 319.5 332 L 322 332.5 L 319.5 333 L 319.5 332 Z " /><path fill="rgb(55,66,26)" stroke="rgb(55,66,26)" stroke-width="1" opacity="1" d="M 194.5 333 L 208 333.5 L 194.5 334 L 194.5 333 Z " /><path fill="rgb(55,66,26)" stroke="rgb(55,66,26)" stroke-width="1" opacity="1" d="M 299.5 333 L 316 333.5 L 299.5 334 L 299.5 333 Z " /><path fill="rgb(1,122,204)" stroke="rgb(1,122,204)" stroke-width="1" opacity="1" d="M 628.5 65 L 630 65.5 L 630 199.5 L 632 200 L 632 65 L 917 65 L 916 67.5 L 917 72.5 L 916 73.5 L 916 351.5 Q 918.3 352.8 915.5 354 L 632 354 L 632 224.5 L 630 224 L 630 351.5 L 627.5 352 L 626 350.5 L 626 225.5 L 627 221.5 L 626 216 L 621.5 217 L 620 215.5 L 620 204 L 625 203 L 626 199.5 L 626 68 L 628 67.5 L 626 66.5 L 628.5 65 Z M 688 192 Q 687 195 690 194 Q 691 191 688 192 Z M 692 192 L 692 194 L 696 195 Q 698 190 692 192 Z M 776 192 L 776 194 L 792 195 L 792 194 Q 786 195 787 192 L 776 192 Z M 826 192 Q 825 195 828 194 Q 829 191 826 192 Z M 834 192 L 834 195 Q 836 196 834 197 L 832 196 L 821 203 Q 818 202 819 205 L 817 205 L 817 207 L 815 207 L 815 209 L 813 209 L 813 211 L 811 211 L 811 215 L 810 215 L 808 215 L 809 217 Q 810 221 807 222 L 807 226 L 804 228 L 806 228 L 806 238 L 807 239 L 807 248 Q 810 247 809 252 L 811 252 Q 810 256 813 258 L 813 259 L 815 259 Q 814 262 817 261 L 817 262 Q 813 261 814 264 L 818 266 L 819 263 L 819 265 Q 820 267 822 265 L 822 267 L 825 268 L 824 272 L 826 272 Q 824 268 828 269 L 827 271 L 829 271 L 831 271 L 831 273 L 836 273 L 841 277 Q 846 276 844 280 L 849 279 L 848 281 Q 847 283 850 282 L 850 284 Q 853 285 852 282 L 853 282 Q 852 285 857 283 L 856 285 L 857 286 L 860 285 Q 862 286 860 288 L 862 288 L 863 288 Q 862 291 865 290 L 864 294 L 865 297 L 865 299 L 863 298 L 862 302 L 863 303 L 859 302 Q 855 301 856 304 L 857 305 L 855 304 L 853 307 L 845 307 L 844 305 L 840 304 L 838 305 L 835 303 L 832 301 L 832 300 Q 833 297 831 298 L 831 296 L 828 297 L 828 296 L 825 295 L 832 294 Q 833 290 828 292 Q 826 295 825 291 L 818 291 L 817 293 L 816 292 L 812 294 L 814 294 L 814 295 L 811 295 Q 812 298 809 297 L 810 295 L 808 294 L 807 298 Q 808 300 806 299 L 804 301 L 801 300 L 798 305 L 799 307 L 799 310 Q 802 309 801 313 L 803 314 L 801 314 L 800 317 Q 799 321 802 320 L 803 317 L 804 320 Q 808 319 809 322 L 808 324 L 810 323 L 810 328 L 813 328 L 815 327 L 814 326 L 816 327 Q 815 329 818 328 L 819 328 L 819 329 L 824 329 L 825 332 L 829 331 Q 833 333 830 335 L 826 334 Q 823 333 824 336 L 832 336 L 832 333 L 837 333 L 837 335 L 839 334 L 847 336 L 855 336 L 856 335 Q 862 337 861 333 L 868 333 L 868 336 L 870 336 L 870 331 L 875 331 Q 874 328 879 329 L 880 330 Q 881 327 879 328 L 879 327 L 882 328 L 881 327 Q 880 323 884 325 L 884 324 Q 886 320 888 322 L 888 320 L 892 320 L 892 318 L 889 318 L 891 317 Q 893 316 891 315 L 893 314 L 893 311 L 897 301 L 897 287 Q 894 285 895 281 Q 897 279 895 278 Q 892 279 893 276 Q 889 274 892 273 L 889 271 Q 890 266 886 265 Q 883 266 884 263 L 881 263 L 881 261 L 879 261 L 880 258 L 876 259 L 869 254 Q 866 255 867 253 L 866 253 Q 863 254 864 251 L 855 249 L 856 245 L 852 246 L 854 247 L 851 247 L 850 244 L 848 245 L 848 244 Q 849 240 845 242 L 843 243 L 841 240 L 837 237 L 838 234 L 837 229 L 840 230 L 839 226 L 842 225 L 846 223 L 848 224 L 850 223 L 855 223 L 855 225 L 857 225 L 856 227 Q 855 231 858 230 L 859 226 L 864 233 Q 870 235 869 231 L 872 232 Q 874 233 873 230 L 875 230 Q 877 231 876 227 L 880 228 L 879 226 Q 885 225 887 221 Q 886 218 889 219 Q 890 216 887 217 L 886 215 Q 885 211 888 212 L 888 208 Q 885 207 886 210 Q 883 211 884 209 L 883 209 L 879 205 L 880 201 L 878 202 Q 879 204 876 203 L 875 200 L 873 201 L 871 199 L 859 195 L 840 195 L 838 195 Q 834 196 836 192 L 834 192 Z M 859 192 L 860 194 Q 861 191 859 192 Z M 862 192 Q 861 195 864 194 Q 865 191 862 192 Z M 866 192 Q 865 195 868 194 Q 869 191 866 192 Z M 729 194 L 729 195 L 736 195 L 729 194 Z M 689 196 L 687 198 L 687 224 L 690 225 L 693 224 L 695 225 L 698 224 L 719 224 L 720 225 L 725 224 L 725 331 L 724 334 L 726 335 L 725 335 L 725 336 L 728 336 L 729 333 L 755 333 L 755 333 L 755 225 L 757 225 L 762 224 L 783 224 L 784 225 L 793 224 L 794 222 L 793 220 L 793 205 L 794 204 L 793 201 Q 795 196 791 197 L 788 196 L 765 197 L 763 197 L 749 197 L 748 196 L 747 197 L 692 197 L 689 196 Z M 825 197 L 826 199 Q 827 196 825 197 Z M 630 216 L 630 219 L 632 220 Q 633 215 630 216 Z M 796 216 L 795 221 L 796 221 L 796 216 Z M 689 227 L 689 228 L 692 228 L 689 227 Z M 697 227 L 697 228 L 700 228 L 697 227 Z M 705 227 L 705 228 L 708 228 L 705 227 Z M 713 227 L 713 228 L 716 228 L 713 227 Z M 721 227 L 721 228 L 724 228 L 721 227 Z M 757 227 L 757 228 L 792 228 L 757 227 Z M 721 232 L 720 240 L 722 240 L 722 234 L 721 232 Z M 800 234 L 800 240 L 802 240 L 802 234 L 800 234 Z M 722 240 L 722 327 L 724 327 L 724 241 L 722 240 Z M 850 242 Q 849 245 852 244 Q 853 241 850 242 Z M 854 242 Q 853 245 856 244 Q 857 241 854 242 Z M 870 250 L 868 252 L 872 252 Q 873 249 870 250 Z M 817 270 Q 815 273 818 272 L 817 270 Z M 832 278 Q 831 281 834 280 Q 835 277 832 278 Z M 836 278 L 836 280 L 840 280 L 836 278 Z M 852 284 Q 851 287 855 286 Q 856 283 852 284 Z M 856 286 L 854 288 L 856 288 L 856 286 Z M 814 288 Q 813 291 816 290 Q 817 287 814 288 Z M 829 288 Q 828 291 832 290 Q 833 287 829 288 Z M 800 296 Q 799 299 802 298 Q 803 295 800 296 Z M 838 296 L 838 303 L 840 303 L 840 297 L 838 296 Z M 900 300 L 899 304 L 900 304 L 900 300 Z M 792 310 Q 791 313 794 312 Q 795 309 792 310 Z M 799 310 Q 797 313 800 312 L 799 310 Z M 886 326 Q 885 329 888 328 Q 889 325 886 326 Z M 758 328 L 757 331 Q 756 334 760 332 Q 762 327 758 328 Z M 877 333 L 877 334 Q 879 333 878 336 L 880 336 Q 882 332 877 333 Z M 874 334 L 872 336 L 874 336 L 874 334 Z " /><path fill="rgb(248,252,254)" stroke="rgb(248,252,254)" stroke-width="1" opacity="1" d="M 838.5 197 L 858.5 197 L 865.5 199 Q 877.5 203.5 884 213.5 L 886 218.5 L 865 232 L 859.5 224 Q 854.3 219.2 842.5 221 L 836 226.5 Q 833.7 229.7 835 236.5 L 841.5 244 L 873.5 259 L 889 272.5 L 894 284.5 L 895 297.5 L 892 310.5 L 883.5 322 Q 870 334.5 842.5 333 L 825.5 329 Q 815.2 324.8 808 317.5 L 800 306.5 L 800 304 L 821.5 292 L 833.5 305 L 840.5 308 L 851.5 309 Q 860.1 307.6 865 302.5 Q 868.3 298.8 867 290.5 L 861.5 284 L 831.5 270 Q 820.9 264.6 814 255.5 L 809 245.5 L 808 240.5 L 808 225.5 Q 810.9 211.9 820.5 205 Q 827.5 199 838.5 197 Z " /><path fill="rgb(248,252,254)" stroke="rgb(248,252,254)" stroke-width="1" opacity="1" d="M 689.5 198 L 791.5 198 L 792 198.5 L 792 222 L 754 222 L 754 330.5 L 753.5 331 L 727 331 L 727 223.5 L 725.5 222 L 688 222 L 688 199.5 L 689.5 198 Z " /><path fill="rgb(3,34,68)" stroke="rgb(3,34,68)" stroke-width="1" opacity="1" d="M 82.5 60 L 376 60.5 L 82.5 61 L 82.5 60 Z " /><path fill="rgb(3,34,68)" stroke="rgb(3,34,68)" stroke-width="1" opacity="1" d="M 623 62 L 625 62.5 L 624 63.5 L 624 199.5 L 622.5 201 L 530 200.5 L 623 200 L 623 62 Z " /><path fill="rgb(3,34,68)" stroke="rgb(3,34,68)" stroke-width="1" opacity="1" d="M 917.5 62 L 919 62.5 L 919 357.5 L 917.5 359 L 624.5 359 L 623 357.5 L 623 220 L 527 219.5 L 622.5 219 L 624 220.5 L 624 357 L 918 357 L 918 63.5 L 917.5 62 Z " /><path fill="rgb(3,34,68)" stroke="rgb(3,34,68)" stroke-width="1" opacity="1" d="M 621.5 65 L 622 196.5 L 621 196.5 L 621.5 65 Z " /><path fill="rgb(3,34,68)" stroke="rgb(3,34,68)" stroke-width="1" opacity="1" d="M 378.5 198 L 440 198.5 L 378.5 199 L 378.5 198 Z " /><path fill="rgb(3,34,68)" stroke="rgb(3,34,68)" stroke-width="1" opacity="1" d="M 479.5 198 L 497 198.5 L 479.5 199 L 479.5 198 Z " /><path fill="rgb(3,34,68)" stroke="rgb(3,34,68)" stroke-width="1" opacity="1" d="M 503.5 198 L 520 198.5 L 503.5 199 L 503.5 198 Z " /><path fill="rgb(3,34,68)" stroke="rgb(3,34,68)" stroke-width="1" opacity="1" d="M 380.5 221 L 424 221.5 L 401.5 222 L 400.5 223 L 399.5 222 L 380.5 222 L 380.5 221 Z " /><path fill="rgb(3,34,68)" stroke="rgb(3,34,68)" stroke-width="1" opacity="1" d="M 427.5 221 L 443 221.5 L 427.5 222 L 427.5 221 Z " /><path fill="rgb(3,34,68)" stroke="rgb(3,34,68)" stroke-width="1" opacity="1" d="M 444.5 221 L 456 221.5 L 444.5 222 L 444.5 221 Z " /><path fill="rgb(3,34,68)" stroke="rgb(3,34,68)" stroke-width="1" opacity="1" d="M 463.5 221 L 467 221.5 L 463.5 222 L 463.5 221 Z " /><path fill="rgb(3,34,68)" stroke="rgb(3,34,68)" stroke-width="1" opacity="1" d="M 475.5 221 L 497 221.5 L 475.5 222 L 475.5 221 Z " /><path fill="rgb(3,34,68)" stroke="rgb(3,34,68)" stroke-width="1" opacity="1" d="M 501.5 221 L 508 221.5 L 501.5 222 L 501.5 221 Z " /><path fill="rgb(3,34,68)" stroke="rgb(3,34,68)" stroke-width="1" opacity="1" d="M 510.5 221 L 520 221.5 L 510.5 222 L 510.5 221 Z " /><path fill="rgb(3,34,68)" stroke="rgb(3,34,68)" stroke-width="1" opacity="1" d="M 522.5 221 L 528 221.5 L 522.5 222 L 522.5 221 Z " /><path fill="rgb(3,34,68)" stroke="rgb(3,34,68)" stroke-width="1" opacity="1" d="M 530.5 221 L 536 221.5 L 530.5 222 L 530.5 221 Z " /><path fill="rgb(3,34,68)" stroke="rgb(3,34,68)" stroke-width="1" opacity="1" d="M 621.5 352 L 622 354.5 L 621 354.5 L 621.5 352 Z " /></svg>